<?xml version="1.0" standalone="no"?>
<!DOCTYPE svg PUBLIC "-//W3C//DTD SVG 20010904//EN"
 "http://www.w3.org/TR/2001/REC-SVG-20010904/DTD/svg10.dtd">
<svg version="1.0" xmlns="http://www.w3.org/2000/svg"
 width="3545.000000pt" height="3545.000000pt" viewBox="0 0 3545.000000 3545.000000"
 preserveAspectRatio="xMidYMid meet">
<metadata>
Created by potrace 1.14, written by Peter Selinger 2001-2017
</metadata>
<g transform="translate(0.000000,3545.000000) scale(0.100000,-0.100000)"
fill="#000000" stroke="none">
<path d="M17560 35389 c-6130 -2117 -10838 -5086 -14655 -9244 -911 -992
-1826 -2123 -2654 -3284 -188 -263 -226 -321 -232 -360 -20 -120 -6 -1544 21
-2211 221 -5384 1527 -10213 3972 -14685 710 -1297 1598 -2685 2475 -3867
l130 -174 74 -22 c1257 -383 2832 -750 4269 -996 2677 -459 5570 -625 8440
-486 2904 141 5828 560 9005 1291 143 33 268 62 278 65 11 3 110 128 221 277
1610 2161 2941 4552 3959 7112 1566 3937 2405 8200 2568 13037 l11 336 -177
269 c-3229 4890 -8836 9197 -16140 12400 -523 230 -1392 594 -1412 592 -4 0
-73 -23 -153 -50z m320 -767 c1694 -697 3264 -1435 4755 -2235 4024 -2158
7351 -4691 9846 -7497 739 -831 1376 -1655 1977 -2554 l233 -349 -6 -71 c-2
-39 -7 -170 -10 -291 -23 -906 -105 -2107 -215 -3145 -657 -6200 -2689 -11620
-6040 -16116 l-188 -251 -68 -16 c-2541 -587 -4685 -943 -6929 -1151 -1443
-134 -2583 -182 -4094 -173 -828 5 -1017 10 -1586 37 -2612 127 -5158 528
-7608 1196 -349 95 -824 232 -847 244 -17 9 -172 217 -422 565 -3585 5004
-5529 10601 -5863 16875 -39 736 -62 1797 -50 2315 l7 326 122 172 c1495 2116
3172 3990 5016 5605 2919 2557 6367 4563 10515 6117 606 227 1282 466 1300
460 6 -2 75 -30 155 -63z"/>
<path d="M17535 33638 c-1230 -433 -2189 -811 -3195 -1258 -5202 -2314 -9153
-5520 -12393 -10055 l-184 -257 -6 -166 c-19 -468 4 -1589 48 -2397 322 -5848
2137 -11073 5473 -15760 166 -233 432 -595 437 -595 2 0 104 -29 227 -66 2425
-712 5057 -1153 7663 -1284 1005 -50 2237 -58 3213 -20 2793 107 5650 507
8685 1216 l118 28 168 225 c2162 2904 3738 6194 4715 9846 700 2617 1087 5347
1186 8360 l9 280 -47 75 c-25 41 -119 184 -209 317 -1307 1951 -3078 3835
-5228 5564 -1575 1267 -3355 2453 -5315 3541 -1126 626 -2388 1253 -3645 1813
-516 230 -1525 657 -1543 654 -4 -1 -83 -28 -177 -61z m255 -3437 l0 -108 -77
-7 c-42 -3 -187 -6 -322 -6 -135 0 -270 -3 -299 -7 l-53 -6 3 -131 3 -131 353
4 352 4 0 -110 0 -110 -52 -7 c-29 -3 -170 -6 -313 -6 -143 0 -277 -3 -297 -6
l-38 -7 0 -164 0 -165 395 7 395 7 0 -114 0 -115 -117 -1 c-65 -1 -307 -5
-539 -8 l-421 -7 -7 469 c-3 258 -9 549 -12 646 l-7 178 294 3 c162 1 399 3
527 5 l232 2 0 -109z m790 74 c416 -26 513 -41 610 -90 162 -82 224 -309 132
-479 -48 -87 -160 -156 -285 -174 l-50 -7 39 -30 c92 -70 136 -130 301 -409
l94 -159 -98 7 c-54 3 -133 9 -175 12 l-78 7 -57 91 c-137 220 -264 406 -291
425 -44 31 -78 41 -164 49 l-77 8 -6 -41 c-2 -22 -11 -141 -19 -264 -9 -123
-16 -224 -18 -225 -5 -3 -283 16 -286 19 -2 2 15 280 37 617 23 337 41 626 41
641 0 28 0 28 53 23 28 -3 162 -13 297 -21z m-2486 -90 c32 -8 82 -31 112 -51
97 -64 145 -146 162 -274 19 -137 -17 -249 -107 -333 -94 -88 -193 -120 -473
-153 -142 -17 -148 -19 -148 -41 0 -12 11 -117 25 -234 14 -116 23 -214 20
-218 -7 -6 -277 -40 -283 -36 -6 5 -152 1268 -148 1273 5 5 518 67 613 75 110
8 172 6 227 -8z m4109 -100 c373 -64 432 -78 508 -115 159 -81 233 -260 165
-405 -28 -61 -108 -136 -165 -155 l-40 -13 43 -27 c59 -38 102 -85 132 -148
24 -47 26 -61 22 -135 -5 -96 -29 -154 -95 -226 -83 -94 -202 -130 -362 -112
-97 11 -763 121 -769 126 -2 2 44 284 102 627 58 343 106 626 106 631 0 12 17
9 353 -48z m-5453 -717 c235 -299 426 -545 424 -546 -1 -2 -70 -21 -152 -42
l-150 -37 -92 123 c-55 75 -99 124 -109 123 -9 0 -131 -31 -271 -67 l-255 -67
-20 -155 -20 -155 -149 -38 c-81 -21 -149 -37 -151 -35 -3 4 206 1372 210
1376 11 12 292 78 299 71 5 -5 202 -253 436 -551z m7272 290 c76 -22 138 -46
138 -52 0 -6 38 -319 84 -696 46 -377 83 -686 82 -687 -1 -1 -69 19 -152 44
l-151 45 -15 154 c-8 85 -17 156 -19 158 -2 2 -122 40 -267 84 l-262 79 -97
-121 c-53 -66 -97 -122 -97 -123 -2 -2 -288 86 -292 90 -2 2 36 51 84 108 48
57 249 296 445 532 197 235 363 427 369 427 6 0 73 -19 150 -42z m-9031 -162
c97 -21 175 -64 242 -135 32 -34 57 -66 55 -72 -2 -6 -58 -41 -125 -79 l-122
-67 -32 33 c-77 80 -212 100 -342 51 -121 -47 -189 -106 -235 -206 -64 -139 4
-407 136 -538 57 -56 130 -90 214 -100 130 -16 309 66 418 190 l33 38 -23 75
c-13 41 -25 74 -27 74 -2 0 -69 -23 -149 -50 -80 -28 -149 -48 -154 -45 -14 9
-73 196 -64 205 15 13 566 201 573 195 3 -3 42 -113 88 -243 l83 -237 -37 -54
c-69 -100 -229 -225 -378 -296 -140 -66 -237 -89 -380 -89 -125 0 -195 14
-280 56 -308 154 -461 600 -309 900 29 58 96 148 140 190 56 53 197 128 304
163 165 53 263 64 371 41z m10174 -230 c69 -27 112 -51 117 -62 4 -11 51 -226
103 -479 53 -253 99 -468 103 -477 5 -12 56 102 161 363 85 209 158 382 163
385 7 5 226 -81 240 -95 6 -5 -463 -1175 -475 -1188 -6 -5 -251 97 -263 110
-7 6 -55 219 -108 472 -53 253 -100 468 -104 477 -5 11 -57 -106 -161 -363
-84 -208 -155 -379 -156 -379 -13 0 -240 100 -242 107 -2 6 345 871 461 1146
18 44 6 46 161 -17z m-11381 -845 c163 -308 296 -563 296 -569 0 -5 -56 -39
-125 -75 l-124 -66 -438 233 c-241 128 -439 232 -440 231 -2 -1 83 -163 187
-359 105 -197 190 -361 190 -365 0 -3 -53 -34 -118 -68 l-118 -62 -240 452
c-131 248 -267 504 -301 569 l-62 117 125 66 125 66 397 -212 c218 -116 421
-225 451 -242 l55 -30 -46 84 c-200 369 -349 662 -342 669 10 10 216 119 225
120 4 0 140 -252 303 -559z m13119 12 c117 -27 308 -136 401 -229 102 -102
148 -184 166 -297 11 -70 0 -181 -19 -200 -6 -6 -55 8 -138 40 l-128 50 -6 79
c-6 93 -28 141 -91 200 -122 116 -306 156 -441 96 -96 -42 -209 -188 -257
-332 -30 -89 -25 -202 11 -280 63 -136 223 -230 418 -246 l77 -7 41 69 c36 61
39 70 24 80 -9 6 -71 43 -139 83 -119 70 -123 73 -109 94 7 12 33 55 57 95 30
51 47 71 58 67 23 -9 486 -286 501 -301 12 -11 -5 -46 -117 -232 l-131 -219
-51 -6 c-27 -3 -89 -2 -137 4 -356 40 -662 243 -770 510 -88 217 -20 505 165
701 169 178 371 238 615 181z m-14427 -729 c174 -305 313 -558 309 -562 -20
-20 -241 -140 -247 -134 -4 4 -140 241 -303 527 -164 286 -306 534 -316 551
l-18 30 122 71 c67 39 125 72 129 72 4 1 149 -249 324 -555z m-939 -29 c60
-18 136 -68 169 -110 l23 -30 -115 -87 -115 -87 -45 32 c-40 28 -54 32 -107
31 -70 0 -106 -15 -183 -78 -113 -91 -146 -188 -79 -232 52 -34 106 -21 404
95 147 57 226 75 315 69 95 -6 169 -41 229 -108 156 -174 136 -395 -51 -580
-192 -189 -415 -289 -584 -261 -87 14 -170 56 -238 119 l-53 48 108 92 108 92
34 -25 c126 -97 265 -83 401 40 107 96 129 207 56 276 -21 20 -36 24 -82 23
-46 0 -89 -13 -222 -67 -228 -91 -303 -110 -404 -105 -100 6 -159 30 -221 93
-58 58 -87 121 -93 206 -5 71 15 151 49 201 11 14 19 30 19 35 0 11 144 151
195 190 61 45 170 104 233 124 70 22 182 24 249 4z m16656 -80 c175 -53 389
-221 462 -365 25 -48 45 -127 45 -176 0 -49 -25 -138 -52 -181 l-19 -33 -120
81 c-96 64 -119 84 -113 97 11 27 17 118 10 148 -19 74 -185 192 -285 202 -40
3 -52 0 -77 -21 -23 -20 -29 -33 -28 -65 2 -50 42 -111 165 -252 162 -184 215
-266 239 -369 27 -113 -15 -234 -111 -326 -78 -74 -132 -98 -239 -103 -73 -4
-96 0 -165 23 -139 46 -283 141 -392 258 -137 147 -173 310 -106 487 30 80 35
86 64 67 13 -8 68 -40 121 -71 l97 -56 -16 -45 c-24 -71 -15 -169 21 -225 53
-84 181 -167 270 -177 93 -11 166 42 166 121 0 54 -28 97 -156 242 -117 133
-175 213 -211 290 -23 49 -27 73 -28 144 0 99 19 152 81 220 89 98 229 130
377 85z m-8127 -719 c865 -693 1454 -1651 1709 -2780 19 -82 35 -150 37 -151
2 -1 244 60 538 136 294 76 539 138 543 139 4 0 -13 -25 -38 -56 -221 -272
-401 -671 -519 -1155 -78 -319 -121 -591 -216 -1349 -109 -874 -164 -1182
-281 -1570 -275 -914 -813 -1457 -1679 -1694 l-55 -15 -66 -3823 c-37 -2103
-66 -3824 -65 -3825 0 0 106 77 235 173 l235 175 23 -58 c13 -31 20 -60 16
-64 -5 -3 -121 -90 -259 -192 l-251 -186 -6 -227 c-4 -125 -7 -270 -6 -323 l0
-96 153 -128 c84 -71 177 -150 206 -176 l55 -48 -35 -41 c-19 -22 -39 -41 -44
-41 -4 -1 -101 79 -214 176 -119 102 -221 182 -241 189 -20 6 -256 78 -526
159 -269 81 -495 152 -501 159 -15 14 -48 116 -41 123 3 3 240 -65 526 -151
287 -86 525 -156 531 -156 6 0 10 33 10 83 l0 83 -579 404 -580 404 6 65 c3
36 7 67 8 68 1 2 257 -175 569 -393 433 -302 570 -393 577 -383 5 8 9 138 8
289 l0 275 -479 495 c-388 400 -479 499 -475 516 3 12 13 41 23 64 l18 43 459
-476 c253 -262 460 -475 461 -474 1 1 5 173 9 382 l7 381 -346 324 c-190 179
-346 328 -346 333 0 4 12 31 26 59 l26 51 46 -45 c26 -25 168 -159 317 -299
l270 -253 6 50 c4 27 12 402 18 834 6 432 14 856 17 943 l7 157 -264 0 c-145
0 -273 3 -285 6 -17 5 -23 21 -39 102 -10 53 -33 158 -51 233 l-33 136 -10
1419 c-6 780 -14 1668 -17 1971 l-6 553 -42 10 c-74 19 -274 90 -353 126 -358
164 -661 446 -872 814 -190 330 -330 787 -411 1340 -48 334 -76 655 -115 1340
-31 541 -49 799 -76 1035 -66 599 -177 987 -362 1263 -30 45 -52 82 -49 82 3
0 240 -75 525 -166 416 -133 521 -164 528 -153 5 8 9 37 9 64 0 83 39 319 75
459 179 698 626 1322 1460 2038 159 136 395 328 404 328 4 0 66 -47 137 -104z
m9670 -651 c-13 -33 -119 -329 -237 -657 -118 -329 -216 -598 -219 -598 -3 0
-55 49 -117 108 l-112 107 54 138 c30 76 55 144 54 150 -1 7 -90 96 -199 199
l-198 188 -141 -66 -142 -66 -52 48 c-88 81 -177 166 -177 169 0 1 10 6 23 9
12 3 301 127 642 275 l620 268 111 -106 112 -106 -22 -60z m-19704 97 c35 -17
73 -41 85 -54 l21 -23 -98 -103 -99 -103 -43 22 c-61 32 -131 31 -189 -3 -93
-55 -188 -181 -189 -251 0 -36 49 -87 84 -87 44 0 131 39 253 112 295 178 431
210 579 136 58 -29 149 -125 176 -185 32 -73 36 -190 8 -272 -42 -124 -155
-268 -294 -373 -150 -113 -269 -152 -398 -130 -67 12 -172 58 -225 100 l-22
17 56 65 c31 36 73 84 93 108 l38 42 57 -30 c110 -58 229 -34 332 67 128 126
147 267 45 327 -30 17 -40 18 -83 8 -28 -7 -93 -37 -147 -68 -311 -182 -349
-198 -477 -198 -110 0 -162 20 -233 91 -69 69 -95 142 -90 248 8 151 103 299
288 446 163 130 329 162 472 91z m20785 -1213 c45 -57 82 -107 83 -111 0 -4
-96 -83 -214 -175 -118 -92 -213 -169 -212 -171 2 -1 178 -25 392 -52 213 -28
391 -53 394 -57 41 -46 230 -296 227 -299 -2 -2 -163 21 -357 51 -195 30 -355
53 -356 52 -2 -1 -62 -205 -135 -452 -73 -248 -135 -453 -138 -457 -3 -3 -57
59 -120 140 l-114 146 56 160 c30 89 82 239 115 334 42 118 57 174 49 177 -45
15 -290 45 -300 37 -7 -5 -76 -59 -153 -120 l-142 -111 -82 106 c-45 58 -84
111 -86 118 -6 14 984 796 1001 791 6 -1 47 -49 92 -107z m-21604 -239 c358
-93 660 -173 669 -177 14 -7 3 -24 -63 -107 -44 -55 -88 -110 -97 -122 l-17
-23 -152 43 -152 43 -162 -206 c-89 -113 -167 -212 -172 -218 -6 -9 14 -54 68
-148 l76 -135 -83 -106 c-46 -58 -89 -113 -95 -121 -7 -9 -14 -15 -16 -12 -4
4 -633 1162 -655 1205 -9 18 -4 30 40 85 93 117 139 169 149 169 5 0 303 -76
662 -170z m5397 -304 c473 -59 900 -195 1237 -391 763 -447 1210 -1190 1329
-2210 22 -185 25 -675 6 -870 -62 -633 -219 -1242 -483 -1874 l-69 -165 0
-400 1 -401 279 -525 c232 -437 277 -528 267 -541 -59 -80 -238 -356 -288
-443 -354 -620 -560 -1363 -619 -2228 -12 -173 -14 -740 -4 -938 l6 -125 -50
-70 c-117 -166 -276 -307 -445 -395 -307 -161 -641 -158 -927 7 -87 51 -236
199 -288 288 -80 136 -126 335 -114 492 l4 51 61 7 c266 27 445 94 546 203 57
61 83 120 89 203 23 319 -398 640 -777 592 -174 -22 -301 -85 -439 -217 -188
-180 -325 -458 -413 -834 -37 -158 -28 -149 -125 -131 -93 16 -181 47 -289
102 -488 249 -967 928 -1360 1927 -79 201 -180 489 -196 557 -13 61 -12 750 2
1481 17 829 1 1271 -62 1706 -141 976 -523 1652 -1205 2128 -75 52 -75 53 -47
61 45 14 673 13 803 -1 411 -45 681 -116 955 -252 177 -88 302 -177 435 -310
312 -313 495 -745 570 -1350 58 -468 56 -944 -11 -2140 -11 -201 -23 -525 -26
-721 l-6 -355 42 -81 c97 -187 259 -288 461 -288 203 0 368 102 458 284 45 90
51 163 28 299 -47 270 -212 499 -509 703 -73 50 -86 64 -82 82 6 28 31 267 50
472 185 2044 -106 3617 -888 4785 -163 244 -330 452 -514 641 -62 64 -113 119
-113 122 0 4 98 7 218 7 916 0 1583 -179 2033 -546 90 -73 234 -224 301 -315
81 -110 134 -198 204 -344 306 -640 378 -1556 233 -2990 -19 -195 -81 -705
-98 -815 -9 -52 -7 -58 27 -115 57 -96 176 -208 263 -249 146 -69 280 -67 428
5 154 76 263 217 291 377 31 169 -53 350 -218 473 -77 57 -217 130 -298 156
-47 14 -55 20 -51 38 202 930 253 1645 166 2347 -142 1155 -671 2121 -1594
2909 l-157 134 63 6 c133 13 768 2 909 -15z m11134 15 l70 -6 -115 -96 c-990
-832 -1529 -1837 -1656 -3089 -22 -218 -24 -790 -5 -1010 36 -398 94 -766 189
-1196 4 -17 -3 -23 -39 -33 -73 -21 -219 -96 -295 -150 -175 -124 -264 -305
-235 -478 44 -267 322 -473 583 -432 143 22 288 125 386 272 54 81 52 58 18
312 -94 703 -145 1357 -145 1885 0 767 93 1303 304 1745 113 237 225 394 398
561 156 151 293 244 513 350 338 161 728 250 1250 284 179 12 595 13 595 2 0
-4 -32 -39 -71 -77 -177 -173 -412 -465 -572 -707 -739 -1125 -1030 -2596
-892 -4513 16 -222 63 -699 71 -727 3 -12 -15 -29 -65 -63 -304 -204 -480
-443 -527 -717 -23 -136 -17 -209 28 -299 62 -126 164 -215 297 -261 90 -31
239 -31 325 1 127 46 238 146 301 272 l38 74 -6 360 c-4 198 -13 477 -21 620
-49 850 -51 884 -51 1405 0 541 4 621 46 915 79 556 261 968 559 1265 132 131
257 221 430 308 267 134 552 210 960 254 128 13 706 16 785 4 l50 -8 -25 -17
c-76 -50 -267 -200 -346 -272 -517 -473 -806 -1089 -923 -1967 -50 -369 -56
-530 -52 -1257 3 -374 5 -945 5 -1270 l1 -590 -44 -130 c-158 -469 -381 -979
-572 -1312 -381 -665 -817 -1069 -1233 -1142 -97 -18 -88 -27 -125 131 -88
376 -225 654 -413 834 -135 130 -259 192 -430 216 -370 52 -788 -251 -788
-573 0 -232 224 -381 637 -424 l62 -7 3 -51 c10 -168 -34 -355 -114 -492 -52
-89 -201 -237 -288 -288 -285 -164 -616 -168 -925 -9 -163 84 -327 229 -442
389 l-46 65 -2 552 c-1 579 -6 665 -56 1016 -93 657 -285 1240 -574 1746 -46
80 -230 363 -282 433 -10 13 34 103 267 544 l280 527 0 400 0 399 -26 58
c-153 344 -311 818 -398 1193 -277 1206 -152 2290 351 3055 143 216 298 392
483 547 467 392 1036 605 1795 671 70 6 647 5 719 -2z m-17689 -373 c46 -29
84 -57 85 -62 0 -5 -45 -80 -100 -166 -54 -86 -102 -163 -104 -171 -4 -10 122
-94 439 -294 244 -154 445 -282 445 -285 0 -11 -146 -234 -155 -237 -6 -1
-208 123 -450 276 -242 153 -443 277 -447 275 -3 -2 -54 -81 -113 -174 -67
-107 -111 -167 -119 -163 -102 61 -176 115 -170 126 4 6 125 199 269 427 144
228 274 434 289 458 14 23 31 42 36 42 6 0 48 -24 95 -52z m23890 -770 c16
-29 49 -89 75 -134 l46 -80 -422 -562 c-295 -391 -425 -557 -432 -549 -15 19
-142 254 -142 262 0 4 41 59 92 123 50 63 91 120 91 126 0 8 -258 476 -266
482 -1 1 -63 -7 -137 -17 -74 -10 -144 -19 -155 -19 -15 0 -37 30 -93 131 -41
72 -72 132 -70 135 4 3 1306 150 1364 153 15 1 28 -13 49 -51z m-24155 -737
c305 -156 559 -288 565 -293 11 -10 -110 -258 -126 -258 -9 0 -644 323 -996
507 l-143 74 66 130 c35 72 68 129 72 127 4 -2 257 -131 562 -287z m24725
-378 c66 -168 233 -617 251 -673 53 -177 54 -250 4 -350 -83 -165 -306 -244
-461 -164 -35 18 -146 124 -171 164 -12 19 -17 21 -21 10 -34 -117 -60 -178
-113 -259 -76 -120 -233 -345 -242 -349 -4 -1 -34 69 -68 156 l-60 158 58 90
c237 363 268 420 268 489 0 58 -36 184 -54 191 -7 3 -121 -36 -252 -85 -131
-50 -241 -87 -245 -83 -11 11 -103 261 -98 265 4 4 1180 454 1190 456 4 0 10
-7 14 -16z m-25314 -192 l26 -9 -46 -135 -45 -135 -68 -4 c-78 -4 -107 -21
-154 -89 -63 -94 -88 -245 -51 -303 10 -15 29 -32 42 -38 62 -28 123 27 267
243 128 192 190 259 283 305 62 31 82 36 141 35 184 0 327 -110 373 -286 51
-191 -70 -555 -232 -701 -103 -93 -228 -129 -382 -109 -66 8 -64 -13 -13 173
l30 112 66 0 c88 0 136 16 183 63 79 76 134 245 110 335 -27 98 -117 147 -188
103 -34 -21 -64 -60 -202 -260 -147 -214 -246 -291 -383 -299 -104 -6 -168 18
-243 92 -51 51 -65 72 -83 129 -41 126 -22 285 54 458 83 188 177 285 319 325
53 15 151 12 196 -5z m-435 -1407 c30 -8 77 -33 104 -55 91 -72 130 -156 133
-285 2 -60 5 -80 15 -77 6 3 12 9 12 13 0 15 112 92 174 120 63 28 443 170
457 170 7 0 -75 -328 -83 -334 -2 -2 -102 -42 -223 -90 -286 -115 -343 -144
-378 -199 -32 -48 -73 -176 -60 -187 4 -5 118 -36 253 -70 135 -35 247 -64
249 -66 5 -4 -60 -267 -68 -276 -3 -4 -285 65 -626 152 -341 88 -620 160 -621
160 0 0 41 162 92 360 115 443 144 517 238 602 80 73 210 98 332 62z m25694
-239 c355 -53 651 -99 659 -103 8 -5 31 -71 51 -149 l37 -142 -21 -19 c-41
-38 -1078 -853 -1081 -850 -2 2 -21 70 -43 151 l-39 148 126 95 127 96 -68
261 c-38 144 -72 265 -77 270 -5 5 -75 17 -156 28 -82 10 -149 20 -150 21 -3
5 -75 284 -75 292 0 5 15 6 33 3 17 -4 322 -49 677 -102z m-22527 -911 c205
-89 393 -221 552 -385 114 -118 173 -192 246 -310 231 -371 377 -860 448
-1494 49 -435 61 -759 61 -1577 -1 -665 0 -668 21 -710 39 -77 229 -388 321
-527 337 -504 731 -931 1146 -1242 676 -507 1454 -748 2347 -726 460 12 926
86 1420 228 156 45 505 162 505 169 0 5 -21 44 -47 87 -25 43 -79 146 -119
228 -140 290 -220 548 -271 875 -26 166 -26 650 0 835 84 593 311 1209 689
1867 l45 78 95 -59 c236 -144 424 -296 664 -535 222 -223 358 -390 528 -646
147 -221 191 -298 305 -529 227 -461 373 -954 422 -1426 18 -174 16 -494 -5
-645 -39 -299 -140 -586 -270 -770 -83 -118 -251 -543 -326 -825 -205 -772
-47 -1462 502 -2194 26 -35 48 -68 48 -72 0 -5 -33 -9 -72 -9 -85 0 -642 -33
-933 -55 -1523 -117 -2824 -340 -3781 -649 l-170 -55 -105 23 c-1195 274
-2542 1927 -4058 4981 -120 242 -269 547 -331 679 l-112 238 11 162 c7 88 41
508 76 931 147 1762 172 2216 162 2905 -7 490 -33 793 -90 1078 -13 61 -19
112 -14 112 5 0 45 -16 90 -36z m19666 -46 c-26 -120 -56 -336 -76 -548 -14
-152 -18 -286 -17 -745 0 -733 14 -983 144 -2540 38 -456 76 -930 85 -1052
l17 -222 -112 -238 c-283 -600 -697 -1411 -985 -1929 -1266 -2275 -2397 -3511
-3420 -3733 l-90 -20 -170 55 c-956 309 -2258 532 -3780 649 -291 22 -848 55
-932 55 -40 0 -73 4 -73 9 0 5 69 89 153 187 226 265 323 387 399 503 117 181
162 323 138 443 -15 80 -25 100 -59 119 -56 32 -146 173 -226 349 -163 364
-302 874 -379 1395 -160 1087 -60 2102 290 2929 273 644 717 1186 1289 1572
150 102 328 205 337 196 17 -17 158 -276 252 -462 548 -1095 662 -2041 350
-2910 -50 -137 -165 -381 -237 -503 -26 -43 -47 -82 -47 -86 0 -20 486 -175
775 -246 745 -184 1402 -212 2027 -85 1042 213 1939 879 2663 1980 93 142 240
382 277 455 14 26 17 136 21 850 5 793 9 931 43 1285 73 779 243 1335 533
1745 123 173 344 377 531 487 84 51 265 138 286 138 7 0 5 -27 -7 -82z m3767
-295 c4 -49 8 -117 8 -152 l1 -65 -415 -136 -415 -136 70 -16 c39 -9 234 -49
435 -89 201 -40 367 -74 369 -75 9 -8 32 -337 24 -344 -4 -4 -190 -74 -413
-155 -223 -81 -408 -151 -413 -155 -4 -3 187 -35 424 -71 237 -35 435 -67 440
-70 10 -6 36 -275 27 -284 -6 -7 -1289 215 -1300 224 -3 3 -12 73 -19 154 -9
114 -10 150 -1 156 7 4 211 83 453 176 312 120 436 171 423 177 -11 4 -224 48
-474 98 -250 50 -455 92 -457 93 -4 5 -31 312 -27 316 3 4 1234 439 1246 440
3 1 10 -38 14 -86z m-27193 -118 l79 -7 -6 -41 c-3 -23 -17 -190 -32 -370 -23
-270 -25 -330 -14 -337 13 -8 248 -25 255 -19 2 2 15 148 30 324 14 176 28
330 31 343 5 23 6 23 107 17 56 -4 106 -11 110 -15 5 -4 -3 -149 -17 -321 -15
-173 -28 -327 -29 -344 l-2 -30 163 -14 c90 -7 165 -12 167 -10 4 4 65 708 65
748 l0 24 112 -7 c62 -4 114 -9 115 -10 3 -2 -87 -1070 -90 -1072 -6 -3 -1273
109 -1277 112 -2 3 15 233 38 512 24 279 43 513 42 520 0 10 10 12 38 8 20 -3
72 -8 115 -11z m443 -1644 l641 -233 2 -157 2 -156 -628 -263 c-345 -144 -634
-262 -641 -262 -10 0 -12 35 -10 156 l3 155 440 178 c242 97 449 181 460 185
15 6 -82 42 -380 142 -220 73 -432 145 -472 160 l-72 26 -3 154 c-2 100 1 153
7 151 6 -2 298 -108 651 -236z m26234 -441 c272 -144 513 -273 535 -285 l41
-23 -13 -148 c-7 -82 -17 -151 -21 -155 -12 -11 -1313 -452 -1318 -446 -3 2 0
73 7 156 l12 151 151 48 151 48 22 244 c12 135 22 260 22 277 1 32 -1 34 -140
103 -135 68 -140 72 -135 98 3 15 7 63 11 107 3 44 8 101 11 128 l6 48 81 -45
c45 -24 305 -162 577 -306z m-25479 -953 c10 -65 20 -129 23 -143 4 -16 2 -24
-6 -24 -7 0 -294 -42 -638 -94 -344 -51 -626 -93 -627 -92 -4 3 -45 288 -41
290 8 6 1226 184 1248 183 24 -2 25 -6 41 -120z m25294 -483 c330 -64 602
-118 604 -120 4 -4 -38 -229 -49 -259 -6 -15 -124 -69 -468 -215 -253 -107
-459 -197 -457 -199 3 -2 185 -39 406 -82 221 -43 403 -80 405 -82 4 -4 -43
-257 -48 -262 -6 -5 -1243 238 -1252 245 -7 7 37 279 46 285 2 1 208 88 458
195 250 106 456 194 457 194 1 1 -179 37 -400 80 -221 43 -404 79 -405 81 -4
3 34 214 44 248 4 14 12 17 32 13 15 -3 297 -58 627 -122z m-25182 -206 c35
-138 35 -144 18 -163 -186 -207 -631 -719 -628 -722 3 -2 179 41 393 97 213
55 391 97 394 93 4 -4 21 -63 38 -131 21 -86 27 -125 18 -127 -6 -2 -283 -74
-616 -161 -333 -86 -608 -158 -611 -160 -4 -2 -20 52 -37 119 -17 68 -34 130
-37 138 -3 9 114 149 330 393 184 209 334 381 332 382 -1 2 -183 -44 -402
-101 -220 -57 -403 -101 -406 -97 -6 8 -70 255 -66 257 1 1 270 70 597 155
327 84 604 157 615 161 11 4 23 8 26 8 4 1 23 -63 42 -141z m24687 -1299 c195
-51 371 -186 445 -340 88 -187 85 -373 -10 -608 -95 -232 -230 -359 -418 -391
-82 -15 -140 -7 -133 18 2 9 15 74 27 143 l23 127 52 5 c136 14 234 124 271
305 36 178 -41 321 -221 407 -210 100 -397 88 -516 -34 -93 -94 -130 -196
-129 -351 1 -137 3 -140 84 -173 38 -15 72 -24 75 -20 4 5 29 67 55 140 26 72
51 136 55 142 5 8 37 0 108 -26 56 -20 102 -41 102 -45 0 -3 -48 -134 -106
-291 l-105 -284 -243 90 -244 90 -11 37 c-73 245 -7 600 153 824 159 222 408
307 686 235z m-24344 -189 c121 -59 220 -197 291 -405 35 -104 38 -117 38
-235 0 -118 -2 -128 -29 -185 -43 -87 -107 -144 -228 -203 -95 -46 -817 -327
-823 -320 -5 6 -105 272 -102 273 1 1 155 59 342 130 470 177 498 190 539 235
70 78 73 185 9 317 -32 66 -88 118 -141 132 -58 16 -134 -7 -560 -169 -206
-78 -378 -138 -382 -134 -16 17 -101 257 -93 265 16 15 762 292 848 315 119
32 203 27 291 -16z m805 -2659 c174 -54 327 -216 374 -397 19 -75 19 -203 0
-278 -48 -183 -200 -343 -380 -399 -97 -30 -233 -30 -330 0 -166 52 -302 181
-365 348 -27 73 -38 224 -21 306 44 211 218 385 433 434 81 19 202 13 289 -14z
m22610 -4 c96 -34 156 -72 224 -141 106 -108 159 -238 159 -391 0 -57 -7 -112
-18 -150 -84 -285 -372 -461 -654 -401 -213 45 -386 214 -437 427 -69 296 127
606 429 675 86 20 214 12 297 -19z m-20743 -2326 c167 -145 302 -267 300 -271
-5 -14 -132 -160 -139 -160 -3 0 -109 89 -234 198 -125 108 -231 197 -236 197
-12 0 -190 -207 -187 -216 2 -4 92 -85 201 -179 l197 -172 -29 -36 c-17 -20
-50 -59 -73 -86 l-44 -48 -203 177 c-165 144 -206 174 -216 163 -6 -7 -85 -97
-174 -200 -90 -104 -167 -188 -171 -188 -5 0 -51 37 -102 81 -51 45 -95 83
-96 85 -2 1 186 221 419 489 l422 486 31 -29 c17 -16 167 -147 334 -291z
m18838 228 c69 -26 161 -114 200 -191 53 -105 41 -242 -30 -345 l-35 -50 92 0
c56 0 117 -6 157 -17 121 -32 440 -131 439 -136 0 -3 -54 -51 -120 -107 l-120
-101 -67 19 c-406 118 -526 140 -588 107 -50 -27 -137 -100 -127 -107 8 -5
301 -344 331 -382 11 -14 -2 -28 -89 -103 -56 -48 -105 -83 -109 -79 -4 4
-193 224 -419 487 -392 456 -411 480 -394 496 10 9 101 88 203 176 102 87 191
164 198 171 58 56 213 158 262 174 51 15 158 10 216 -12z m-837 -644 l60 -85
-274 -196 c-152 -108 -277 -200 -280 -204 -5 -8 141 -220 152 -220 3 0 122 83
264 184 l258 185 61 -85 c33 -47 61 -89 63 -94 1 -5 -113 -90 -253 -190 -140
-100 -255 -187 -254 -194 1 -12 170 -253 183 -261 4 -2 138 88 297 202 l289
205 20 -27 c11 -15 41 -56 66 -90 l47 -63 -392 -279 c-215 -154 -396 -283
-403 -286 -15 -10 -760 1030 -747 1043 29 29 768 549 774 545 5 -3 35 -43 69
-90z m-17366 -86 c61 -45 113 -82 115 -84 3 -2 -316 -1305 -326 -1328 -6 -15
-22 -6 -119 63 -65 47 -113 88 -113 97 0 9 16 77 36 151 29 111 33 137 22 148
-20 19 -378 275 -393 280 -7 3 -69 -33 -137 -80 l-124 -85 -117 83 -117 84
577 375 c318 206 579 376 581 376 1 1 53 -36 115 -80z m580 -446 c42 -25 77
-48 77 -51 0 -4 -61 -110 -134 -237 -74 -126 -129 -231 -123 -232 7 -1 169 46
362 105 l349 108 156 -93 c85 -51 205 -118 267 -150 l111 -58 -155 -295 c-240
-460 -257 -495 -261 -565 -7 -99 31 -156 140 -214 132 -69 227 -46 303 73 17
28 116 213 220 411 l187 360 117 -59 c64 -32 118 -60 120 -62 5 -5 -323 -634
-393 -753 -71 -121 -139 -193 -216 -230 -49 -23 -67 -26 -160 -26 -93 1 -114
4 -181 31 -41 17 -113 53 -158 80 -136 80 -207 161 -243 277 -45 145 -26 202
243 720 100 192 179 351 176 353 -5 5 -619 -165 -629 -174 -4 -4 4 -207 18
-452 13 -245 23 -452 22 -462 -2 -13 -34 2 -148 68 l-145 84 -5 339 c-3 187
-8 342 -12 346 -3 4 -67 -10 -140 -30 l-133 -37 -98 -168 -98 -169 -115 67
c-82 48 -113 71 -109 82 5 12 408 710 582 1008 l55 93 36 -22 c21 -12 72 -41
115 -66z m15986 -50 c29 -47 50 -91 48 -97 -3 -6 -74 -51 -158 -100 -85 -49
-155 -90 -157 -91 -1 -1 115 -203 258 -448 143 -245 263 -452 266 -460 4 -10
-19 -28 -73 -60 -43 -24 -94 -54 -114 -66 l-37 -22 -268 459 -268 458 -159
-93 c-88 -51 -163 -93 -167 -93 -8 0 -110 173 -110 186 1 10 859 513 876 514
6 0 35 -39 63 -87z m-911 -525 c111 -203 356 -696 382 -767 81 -222 5 -396
-230 -530 -47 -27 -116 -61 -155 -77 -62 -26 -82 -29 -180 -29 -104 0 -113 2
-170 32 -68 36 -124 90 -184 180 -34 51 -409 762 -414 786 -2 9 230 134 236
127 2 -3 84 -160 182 -350 98 -190 194 -372 214 -405 59 -97 137 -136 235
-115 67 14 150 63 190 113 28 35 31 46 31 105 0 78 1 77 -249 559 -85 164
-156 304 -158 311 -2 8 40 37 107 73 61 32 113 59 117 59 3 0 24 -33 46 -72z
m-13150 -473 c61 -26 112 -50 112 -54 0 -4 -89 -222 -199 -486 l-199 -479 296
-123 c162 -67 296 -124 297 -125 2 -2 -16 -48 -39 -103 -29 -67 -47 -99 -57
-97 -24 6 -813 333 -822 342 -11 10 475 1181 488 1176 5 -2 61 -25 123 -51z
m12175 -70 c98 -49 182 -159 217 -287 18 -67 9 -191 -18 -248 -56 -117 -146
-181 -407 -289 l-113 -46 89 -214 c49 -117 89 -218 89 -225 0 -11 -237 -113
-244 -105 -2 2 -105 250 -230 551 -124 301 -235 566 -245 590 l-18 44 261 107
c353 146 393 158 486 154 57 -3 89 -10 133 -32z m-11183 -335 c260 -93 475
-171 477 -174 3 -2 -12 -51 -32 -109 l-37 -104 -176 64 c-96 35 -178 60 -182
56 -4 -5 -82 -219 -175 -478 -92 -258 -171 -480 -176 -491 -8 -22 -9 -21 -131
23 -67 24 -124 46 -126 48 -2 2 76 223 172 493 97 269 176 493 176 499 0 5
-24 17 -52 28 -280 98 -299 107 -292 129 24 77 67 186 74 186 4 0 221 -76 480
-170z m10413 -291 c59 -195 143 -470 186 -611 l78 -258 -115 -36 c-63 -19
-118 -32 -122 -27 -5 4 -69 206 -144 448 -157 512 -146 519 -116 -65 11 -212
20 -403 20 -426 l0 -41 -122 -37 c-94 -28 -124 -33 -130 -24 -4 7 -116 194
-250 415 -133 221 -244 401 -245 399 -2 -2 57 -203 131 -447 75 -244 132 -447
128 -450 -4 -4 -56 -22 -116 -39 -80 -24 -110 -29 -116 -21 -12 20 -373 1212
-368 1216 13 13 371 116 378 108 5 -4 110 -172 234 -372 l226 -364 0 63 c0 35
-7 232 -16 438 -8 206 -14 375 -12 377 9 7 364 113 373 111 5 -1 58 -162 118
-357z m-9571 24 c108 -32 128 -41 128 -58 0 -11 27 -321 60 -690 32 -368 58
-670 57 -672 -2 -2 -267 77 -274 81 -1 1 -7 69 -13 151 -7 83 -15 153 -19 158
-8 8 -458 147 -475 147 -6 -1 -51 -55 -101 -120 -49 -66 -92 -120 -95 -120 -8
0 -262 79 -265 82 -5 6 849 1078 859 1078 6 0 68 -17 138 -37z m7989 -191
c204 -72 332 -223 404 -477 114 -399 -67 -722 -455 -815 -308 -73 -571 49
-702 328 -75 158 -107 386 -74 526 21 88 84 209 138 265 83 86 214 154 358
186 89 20 256 13 331 -13z m-7029 -46 c206 -41 327 -116 395 -248 22 -44 27
-69 31 -150 3 -76 1 -98 -9 -98 -7 0 -68 10 -135 21 l-121 22 -6 53 c-3 30
-15 70 -27 89 -62 101 -330 132 -376 44 -43 -83 -3 -128 201 -231 175 -88 233
-124 297 -186 82 -80 103 -132 103 -257 0 -93 -2 -105 -32 -166 -85 -171 -250
-249 -473 -220 -301 39 -483 179 -519 401 -14 83 -14 147 -1 155 6 4 66 1 134
-6 l124 -12 5 -63 c9 -120 69 -193 187 -228 152 -45 286 3 306 111 15 78 -27
117 -236 223 -212 107 -279 159 -335 262 -40 73 -47 188 -15 270 25 67 96 150
151 179 95 48 219 60 351 35z m6178 -93 c0 -5 -90 -134 -199 -288 l-200 -280
38 -40 c21 -22 162 -178 314 -347 264 -293 275 -307 249 -312 -15 -3 -91 -15
-170 -27 -123 -19 -145 -20 -156 -8 -7 8 -106 128 -221 267 -114 140 -211 250
-215 245 -4 -4 -42 -57 -84 -117 l-78 -109 30 -191 c16 -105 29 -192 28 -193
-5 -5 -259 -43 -263 -39 -9 9 -200 1261 -192 1266 13 9 250 43 255 37 3 -3 24
-125 47 -271 23 -145 44 -263 49 -260 4 3 96 136 204 297 108 161 203 299 210
307 12 13 99 30 347 69 4 0 7 -2 7 -6z m-5046 -143 c49 -5 91 -11 93 -14 4 -4
-127 -1268 -132 -1274 -5 -5 -255 25 -262 31 -3 3 25 286 61 629 36 343 66
629 66 636 0 10 11 12 43 7 23 -3 82 -10 131 -15z m396 -63 c103 -12 105 -12
103 -37 -1 -14 -26 -247 -54 -518 -29 -270 -49 -495 -46 -498 3 -4 146 -21
317 -39 172 -18 313 -35 314 -37 2 -2 -2 -50 -8 -107 -7 -67 -16 -106 -24
-109 -10 -3 -893 87 -898 92 -2 1 133 1258 135 1264 2 4 53 0 161 -11z m3014
-49 c8 -49 46 -611 53 -773 3 -86 1 -163 -6 -199 -40 -212 -190 -319 -481
-341 -168 -12 -305 24 -395 106 -70 65 -110 145 -130 264 -12 72 -77 895 -71
901 3 4 261 21 265 18 2 -2 16 -183 32 -401 15 -219 31 -420 35 -448 18 -142
91 -205 237 -205 126 0 191 33 228 115 25 54 24 110 -10 580 -16 215 -27 392
-25 394 1 2 47 7 101 11 173 13 161 14 167 -22z m-1900 -29 c2 -2 48 -192 102
-422 54 -229 101 -417 104 -417 3 0 59 186 125 413 l120 412 200 -3 c110 -2
201 -4 201 -5 4 -5 -36 -1280 -40 -1284 -2 -3 -59 -2 -126 2 l-121 8 6 206
c11 340 22 746 20 748 -1 2 -62 -211 -135 -472 l-134 -476 -130 3 -131 3 -106
480 -106 480 -6 -140 c-4 -77 -9 -246 -12 -375 -3 -129 -8 -282 -11 -339 l-6
-103 -119 4 c-65 2 -121 6 -123 9 -4 3 29 1261 33 1278 1 5 390 -4 395 -10z"/>
<path d="M18506 29943 c-4 -60 -9 -129 -12 -154 l-5 -46 48 -7 c26 -3 127 -9
224 -13 168 -6 178 -5 222 16 54 26 77 67 77 139 0 59 -32 105 -88 129 -29 12
-328 43 -423 43 l-37 0 -6 -107z"/>
<path d="M15682 29945 c-56 -7 -105 -15 -108 -18 -6 -6 31 -335 38 -343 7 -6
247 25 308 41 99 26 150 84 150 170 0 63 -28 110 -85 142 -47 26 -132 29 -303
8z"/>
<path d="M20082 29733 c-12 -75 -21 -137 -20 -138 2 -1 80 -14 173 -30 254
-41 314 -36 355 30 22 36 26 100 8 140 -23 51 -74 69 -337 115 -172 30 -153
42 -179 -117z"/>
<path d="M20016 29344 c-23 -116 -47 -287 -40 -294 11 -9 387 -70 436 -70 84
0 148 51 162 129 15 83 -39 157 -136 186 -55 16 -273 58 -364 71 -51 6 -52 6
-58 -22z"/>
<path d="M14236 29553 c-13 -65 -58 -444 -54 -448 6 -6 329 75 340 84 3 3 -58
93 -137 199 -132 179 -143 191 -149 165z"/>
<path d="M21772 29178 c-79 -98 -145 -184 -148 -191 -3 -9 47 -28 158 -61 90
-27 168 -51 174 -53 8 -3 -23 379 -38 468 -2 9 -62 -58 -146 -163z"/>
<path d="M17810 26223 c-539 -447 -964 -945 -1250 -1463 -197 -357 -323 -740
-361 -1095 -6 -60 -12 -111 -14 -113 -2 -2 -122 45 -267 103 -144 59 -269 110
-277 113 -7 3 3 -17 22 -44 122 -172 206 -458 251 -859 22 -192 33 -349 56
-755 45 -823 84 -1181 166 -1550 145 -649 421 -1108 827 -1380 94 -62 233
-138 240 -130 2 3 0 491 -5 1085 -5 594 -5 1081 -1 1083 4 1 222 114 483 251
l475 249 3 -61 c2 -33 -6 -583 -18 -1221 -24 -1359 -24 -1446 -9 -1446 6 0 71
28 143 63 680 328 1047 853 1229 1757 41 202 68 378 132 860 25 190 57 415 71
500 76 466 181 820 325 1101 48 94 178 296 235 366 l26 32 -352 -90 c-194 -50
-354 -89 -355 -87 -2 2 -18 66 -35 143 -216 948 -725 1877 -1333 2438 -83 76
-231 201 -282 238 -6 4 -61 -35 -125 -88z"/>
<path d="M17675 21330 l-360 -188 2 -409 c11 -1833 47 -6619 50 -6623 3 -3
126 -7 274 -8 l269 -4 0 34 c0 18 29 1687 64 3708 36 2021 63 3676 62 3677 -1
1 -163 -83 -361 -187z"/>
<path d="M27205 26063 c-116 -53 -212 -99 -215 -101 -3 -2 53 -60 124 -128 72
-68 133 -121 137 -117 10 11 172 433 168 438 -3 2 -99 -40 -214 -92z"/>
<path d="M6709 24696 c10 -17 65 -112 121 -211 56 -99 103 -181 104 -182 3 -4
221 276 221 284 0 4 -105 37 -232 74 l-233 66 19 -31z"/>
<path d="M29459 23170 c-114 -15 -211 -29 -217 -31 -10 -4 156 -319 168 -318
3 0 48 54 100 121 52 67 119 152 148 190 63 81 85 76 -199 38z"/>
<path d="M30250 21928 c-74 -28 -137 -52 -138 -53 -2 -2 17 -57 41 -122 114
-297 142 -342 220 -357 51 -10 126 21 154 63 40 59 32 108 -49 327 -40 107
-77 194 -83 194 -5 -1 -71 -24 -145 -52z"/>
<path d="M4570 20418 c-18 -13 -41 -39 -51 -58 -20 -38 -108 -357 -112 -404
l-2 -28 145 -39 c100 -26 147 -35 151 -27 13 21 89 344 95 403 4 47 1 68 -13
95 -21 42 -90 80 -144 80 -21 0 -50 -9 -69 -22z"/>
<path d="M30380 20214 c0 -17 84 -330 91 -337 4 -5 93 56 198 135 105 78 188
144 184 145 -5 1 -98 14 -208 28 -110 14 -215 28 -232 31 -18 2 -33 2 -33 -2z"/>
<path d="M15694 16235 c-24 -24 -26 -32 -21 -78 8 -78 43 -175 122 -336 199
-405 527 -860 677 -937 45 -23 90 -15 107 20 86 181 -597 1293 -832 1351 -20
5 -32 1 -53 -20z"/>
<path d="M19670 16243 c-54 -26 -196 -174 -301 -316 -256 -344 -499 -812 -503
-968 -1 -66 14 -89 59 -89 59 0 145 72 270 225 164 202 335 471 460 726 79
161 114 258 122 336 5 46 3 54 -20 77 -30 30 -40 31 -87 9z"/>
<path d="M30660 16812 c0 -4 -7 -79 -15 -167 -8 -88 -15 -167 -15 -176 0 -13
41 -3 223 54 122 38 225 72 229 76 4 4 -89 55 -207 114 -118 59 -215 104 -215
99z"/>
<path d="M27079 8862 c-24 -16 -98 -75 -164 -132 -66 -57 -122 -105 -124 -106
-2 -2 43 -57 100 -123 89 -105 105 -119 118 -108 107 88 259 229 283 261 26
36 29 48 26 92 -10 124 -133 183 -239 116z"/>
<path d="M8775 8034 c-93 -63 -183 -123 -198 -135 l-28 -20 131 -95 c72 -52
134 -94 138 -94 4 0 20 46 34 103 15 56 43 159 62 230 19 70 33 127 33 127 -1
-1 -78 -52 -172 -116z"/>
<path d="M23445 6581 c-55 -21 -117 -46 -137 -55 l-37 -16 65 -157 c35 -86 66
-159 69 -161 7 -7 89 25 203 80 88 43 105 55 127 92 34 58 34 124 0 181 -50
86 -133 96 -290 36z"/>
<path d="M13221 5749 c-78 -105 -141 -192 -140 -193 8 -6 313 -96 316 -93 3 3
-25 437 -30 465 -1 6 -67 -74 -146 -179z"/>
<path d="M21135 5826 c-177 -56 -263 -203 -236 -400 41 -295 184 -454 398
-445 148 7 270 96 309 225 20 69 18 196 -7 290 -43 169 -109 266 -214 316 -50
23 -72 28 -135 27 -41 0 -93 -6 -115 -13z"/>
</g>
</svg>
